<svg width="1319" height="45" viewBox="0 0 1319 45" fill="none" xmlns="http://www.w3.org/2000/svg">
<path d="M89.298 19.0741C89.4066 16.9854 90.1549 15.2781 91.3246 13.9462V12.1721H89.7701C86.6278 12.1721 83.9679 13.3773 82.4214 16.0997H82.331V12.4715H74.2715V34.5968H82.3327V25.6649C82.3327 21.8738 83.4412 18.9836 87.9144 18.9836C88.4014 18.9871 88.8572 19.0149 89.298 19.0741ZM150.33 18.9934C150.999 17.0379 152.085 15.2962 153.497 13.8988V12.1704H151.945C148.801 12.1704 146.144 13.3749 144.59 16.0962H144.503V12.4715H136.438V34.5968H144.503V25.6649C144.503 21.8738 145.615 18.9836 150.088 18.9836L150.33 18.9934ZM105.668 18.1638C104.425 17.5169 102.694 17.0856 101.317 17.0856C100.392 17.0856 98.7948 17.4706 98.7948 18.5951C98.7948 20.106 101.317 20.3201 102.432 20.5408C106.19 21.2719 109.032 22.9986 109.032 27.0905C109.032 32.9112 103.582 35.3342 98.3067 35.3342C95.0707 35.3342 91.8876 34.4273 89.1366 32.7876L92.0602 27.3063C93.6971 28.4322 96.4443 29.5497 98.4382 29.5497C99.4579 29.5497 100.963 29.0773 100.963 27.8693C100.963 26.1439 98.4382 26.0534 95.9095 25.408C93.3878 24.7612 90.8657 23.5563 90.8657 19.5876C90.8657 14.1523 95.9095 11.7408 100.881 11.7408C103.451 11.7408 106.022 12.1272 108.365 13.1629L105.669 18.1638H105.668ZM177.671 34.5968H169.61V32.1356H169.521C168.104 34.3351 165.307 35.3258 162.653 35.3258C155.915 35.3258 151.178 29.8477 151.178 23.5069C151.178 17.1726 155.831 11.7356 162.563 11.7356C165.175 11.7356 167.926 12.6839 169.609 14.6229V12.4715H177.668L177.672 34.5968H177.671ZM159.508 23.5545C159.508 26.3563 161.416 28.5129 164.69 28.5129C167.967 28.5129 169.867 26.3598 169.867 23.5545C169.867 20.8371 167.967 18.5519 164.69 18.5519C161.416 18.554 159.508 20.8371 159.508 23.5545ZM135.167 24.8517H118.194C118.194 28.0405 119.927 29.7638 123.248 29.7638C124.975 29.7638 126.214 29.2057 127.102 27.7377H134.858C133.573 32.9572 128.476 35.3293 123.294 35.3293C115.768 35.3293 110.141 31.1859 110.141 23.5563C110.141 16.1819 115.318 11.7408 122.717 11.7408C130.601 11.7408 135.17 16.4865 135.17 24.0304L135.166 24.852L135.167 24.8517ZM127.678 20.3201C127.278 18.2066 125.285 16.827 123.116 16.827C120.765 16.827 118.824 18.0304 118.329 20.3201H127.678ZM48.6309 23.1695C48.6222 22.9805 48.6101 22.7917 48.5948 22.6031V22.5965C48.4138 20.5439 47.7361 18.6229 46.5862 16.8879C46.0797 16.1231 45.4905 15.4165 44.8292 14.781C43.87 13.8574 42.7595 13.0936 41.5077 12.4896C39.624 11.5893 37.5428 11.135 35.322 11.135C35.1049 11.135 34.8777 11.1382 34.6492 11.1465C33.0898 11.2172 31.5812 11.5135 30.1631 12.0353C28.7332 12.5523 27.488 13.2353 26.4696 14.0551C26.2626 14.2198 26.0371 14.4221 25.7953 14.6445L25.6207 14.8155L25.3824 15.0689H25.3855L25.2738 15.1793L25.2195 15.2384L24.9349 15.5382C24.7299 15.7689 24.5303 16.0045 24.3362 16.2445L24.3344 16.2411L24.3275 16.2344C23.9378 16.7086 23.5777 17.1991 23.3126 17.6402C23.1323 17.9251 22.9579 18.2138 22.7897 18.506L20.4652 23.2092L20.4684 23.2123L20.3466 23.4512L20.0898 23.9713C19.5801 25.0035 19.0339 26.0322 18.4233 26.8816C17.0629 28.3744 15.5251 29.1055 13.5476 29.1055C13.4091 29.1055 13.2679 29.0985 13.1231 29.0905C11.9318 29.0428 10.9104 28.7615 10.004 28.2247C9.90844 28.1682 9.81446 28.109 9.72222 28.0472C8.9822 27.5549 8.41475 26.9227 7.99029 26.1342C7.51155 25.2402 7.29932 24.3267 7.32924 23.3589C7.33063 23.3324 7.33237 23.3095 7.33237 23.2879C7.39639 21.7474 7.98368 20.5488 9.1666 19.5135C9.44822 19.2719 9.75044 19.0555 10.0698 18.8666C10.114 18.8402 10.1585 18.8155 10.203 18.7925C11.0815 18.3135 12.0818 18.075 13.2282 18.075L13.5852 18.0847C15.4065 18.154 16.8114 18.7236 17.9317 19.8344L21.4457 13.5218C20.6047 12.9589 19.6556 12.4746 18.6094 12.0813C18.5698 12.0666 18.5287 12.0499 18.4877 12.037C18.3624 11.9925 18.2393 11.9465 18.1109 11.9051C16.9989 11.5333 15.8324 11.3046 14.6317 11.2008C14.6018 11.1956 14.5691 11.1925 14.5395 11.1893C14.3551 11.1775 14.1676 11.1545 13.9835 11.1465C13.7833 11.1389 13.583 11.1345 13.3827 11.1333H13.2689C11.0596 11.1413 9.0069 11.5942 7.12954 12.491C5.02707 13.5051 3.32262 14.9819 2.05933 16.8844C0.799518 18.788 0.111684 20.9001 0.0132228 23.1667C0.00476172 23.3587 0.000353779 23.5508 1.96195e-06 23.7429C-0.00173763 26.9126 1.15335 29.7011 3.44961 32.0419C5.84676 34.498 8.96411 35.8216 12.7067 35.9779C12.9467 35.9876 13.184 35.9942 13.4206 35.9942C15.538 35.9942 17.4971 35.6172 19.2541 34.8635C19.6936 34.6755 20.1198 34.4552 20.5553 34.2101C20.7926 34.0733 21.0163 33.9284 21.2383 33.7739L21.4029 33.6635L21.6791 33.4741C22.009 33.2351 22.3248 32.9773 22.6251 32.702L22.7305 32.6017C22.9089 32.4336 23.0833 32.2612 23.2535 32.0848L23.8835 31.3721L24.1236 31.0707L24.2356 30.9063L24.3477 30.7448C25.2836 29.1713 28.3303 23.4445 28.3303 23.4445V23.433L28.5112 23.0839L28.6625 22.8106C29.1117 21.9925 29.436 21.4115 29.8653 20.8008L29.8768 20.7827C30.8788 19.3293 32.601 18.2936 34.6311 18.1196C38.0365 17.8264 41.0206 20.0649 41.2954 23.1201C41.5686 26.1753 39.0284 28.8896 35.623 29.1845C34.9139 29.2454 34.2247 29.1977 33.5748 29.0543L33.5584 29.0613C31.0597 28.5408 29.4687 26.717 28.6841 25.902L25.4067 31.9316C25.4067 31.9316 26.4254 32.9589 27.123 33.4724C27.8223 33.9841 28.7252 34.4882 29.4457 34.8009C31.1943 35.5483 33.0961 35.996 35.1968 35.996C35.4403 35.996 35.3913 35.996 35.6446 35.9862C39.3836 35.8296 42.7167 34.396 45.1204 31.9399C47.3972 29.6075 48.6327 26.9443 48.6442 23.7916V23.6976C48.6422 23.5215 48.6378 23.3455 48.6309 23.1695ZM61.1668 35.3443C59.4672 35.3443 57.9259 35.1465 56.5422 34.7514C55.1586 34.3563 53.9774 33.7324 52.9987 32.8767C52.0165 32.0203 51.2598 30.9307 50.7268 29.6092C50.1938 28.2874 49.9273 26.694 49.9273 24.8371V12.4666H57.7036V24.7382C57.7036 26.1293 58.0359 27.1368 58.6986 27.7655C59.3635 28.3956 60.2076 28.7103 61.2308 28.7103C62.277 28.7103 63.1259 28.4172 63.781 27.8296C64.4323 27.2419 64.7611 26.2675 64.7611 24.898V12.4663H72.5374V24.6741C72.5374 26.5968 72.2647 28.2313 71.7198 29.5761C71.1753 30.9227 70.4071 32.0224 69.4183 32.8781C68.4247 33.7345 67.2289 34.3563 65.8223 34.7532C64.4156 35.1465 62.8643 35.3439 61.1668 35.3439V35.3443Z" fill="#002979"/>
<g clip-path="url(#clip0_1_614)">
<path d="M369.79 22.1097V31.6396H365.534V17.6986H368.513L369.406 18.8014C372.468 16.4733 376.038 17.086 377.699 19.237L378.482 18.638C380.184 17.3447 382.079 17.0179 384.112 17.5625C385.389 17.9028 386.363 18.6789 386.803 19.9178C387.132 20.8708 387.421 21.8782 387.448 22.8721C387.531 25.6766 387.489 28.4811 387.489 31.2857C387.476 31.4218 387.462 31.5443 387.434 31.6669H383.178V29.2299V24.6964C383.178 24.4241 383.178 24.1382 383.15 23.8659C382.972 21.7421 381.764 20.9388 379.704 21.5923C379.333 21.7285 378.99 21.8918 378.647 22.0688V31.6396H374.308V30.6458V24.5466V24.2743C374.253 21.6195 372.605 20.6665 370.202 21.8782C370.079 21.9191 369.982 21.9871 369.79 22.1097Z" fill="#675D55"/>
<path d="M327.787 12.9742H332.263C332.291 13.192 332.318 13.369 332.318 13.546C332.305 17.2082 332.305 20.8841 332.263 24.5463C332.25 25.227 332.167 25.8941 332.016 26.5612C331.371 29.4746 329.586 31.2445 326.593 31.8027C324.574 32.1975 322.487 32.1703 320.496 31.7074C317.736 31.0539 316.033 28.9981 315.676 25.9349C315.553 24.7369 315.484 23.5388 315.484 22.3408C315.457 19.5362 315.471 16.7317 315.471 13.9272V12.9742H319.974V14.0225C319.974 17.0448 319.947 20.0672 319.988 23.0896C320.002 23.9473 320.125 24.805 320.345 25.6354C320.606 26.6565 321.334 27.4053 322.405 27.555C323.407 27.7048 324.437 27.7048 325.439 27.555C326.675 27.3644 327.32 26.4251 327.567 25.2542C327.705 24.5599 327.773 23.852 327.773 23.144C327.801 19.7949 327.787 16.4322 327.787 12.9742ZM348.301 31.6665H345.651L344.868 30.6999C343.386 31.7618 341.724 32.1022 339.925 31.9797C337.056 31.7755 335.051 30.1962 334.282 27.4461C333.788 25.7171 333.788 23.8928 334.296 22.1638C335.12 19.3593 337.495 17.4669 340.447 17.358C341.614 17.3171 342.781 17.4669 344.017 17.5486V11.8306H348.301V31.6665ZM344.003 27.6367V21.4695C343.743 21.3469 343.509 21.2108 343.248 21.1291C341.065 20.3667 339.088 21.2244 338.525 23.2121C338.387 23.6477 338.319 24.1106 338.319 24.5735C338.346 25.9349 338.58 27.2691 339.953 27.9635C341.326 28.6442 342.713 28.4672 344.003 27.6367Z" fill="#665C54"/>
<path d="M363.666 25.3224H354.81C354.563 26.5749 355.359 27.8274 356.691 28.2358C358.188 28.6987 359.698 28.5489 361.181 28.0997C361.799 27.9091 362.375 27.6232 363.035 27.3509L362.472 30.6319C361.552 31.4215 360.453 31.7483 359.3 31.8844C357.748 32.0614 356.197 32.0206 354.686 31.5441C352.626 30.877 351.226 29.5292 350.594 27.4734C350.031 25.6627 350.004 23.7295 350.539 21.9188C351.295 19.2776 353.45 17.535 356.224 17.358C356.993 17.2899 357.776 17.3036 358.545 17.4125C360.673 17.7528 362.156 18.9645 362.952 20.9522C363.515 22.3136 363.721 23.7703 363.666 25.3224ZM354.7 23.2121H360.11C359.986 21.4423 358.723 20.5982 357.501 20.5982C355.936 20.6118 354.92 21.524 354.7 23.2121Z" fill="#675C55"/>
<path d="M392.391 17.6987C392.927 19.2099 393.449 20.7074 393.984 22.205C394.506 23.7162 395.028 25.2274 395.632 26.9564L398.708 17.6851H402.964L395.536 36.3502H391.224L393.27 31.1768L387.627 17.6987H392.391Z" fill="#665C55"/>
<path d="M286.375 20.7211L285.757 21.9872C283.807 26.303 281.679 30.537 278.905 34.4171C277.436 36.4728 275.802 38.3652 273.729 39.8628C271.861 41.197 269.802 42.0138 267.467 42.0002C264.927 41.9866 262.881 40.9519 261.371 38.9234C259.998 37.0719 259.449 34.9344 259.284 32.6744C259.064 29.6521 259.586 26.7114 260.272 23.7979C260.437 23.1172 260.575 22.4365 260.753 21.6333C260.135 21.9872 259.613 22.3004 259.092 22.5727C258.213 23.0492 257.279 23.3351 256.263 23.3078C254.272 23.2125 252.981 21.7694 253.036 19.7409C254.505 18.4748 255.988 17.3312 257.307 16.0106C260.808 12.5117 263.486 8.42745 265.531 3.94835C265.82 3.28125 266.163 2.62777 266.534 2.00151C267.509 0.449487 269.074 -0.24484 270.694 0.0955163C272.246 0.422259 273.221 1.57947 273.537 3.43101C273.949 5.81351 273.454 8.11432 272.905 10.4015C271.806 14.8942 270.653 19.3869 269.582 23.8932C269.06 26.0988 268.772 28.3451 268.923 30.6187C268.964 31.2858 269.101 31.9529 269.321 32.5791C269.788 33.8044 270.873 34.1176 271.889 33.2735C272.52 32.7289 273.083 32.1299 273.592 31.4764C276.461 27.8686 278.823 23.9341 280.938 19.8634C282.736 16.3918 284.508 12.9065 286.306 9.4349C286.608 8.83587 286.965 8.26407 287.309 7.69228C288.654 5.50038 291.936 5.69098 293.254 7.85565C293.968 9.02647 294.312 10.3334 294.408 11.6813C294.517 13.0835 294.545 14.4858 294.6 15.8881C294.723 18.9377 294.833 21.9872 294.984 25.0368C295.026 25.6086 295.149 26.1804 295.369 26.725C295.767 27.7461 296.522 28.1273 297.579 27.8142C298.17 27.6508 298.733 27.3921 299.227 27.0381C300.628 25.9898 301.96 24.8735 303.415 23.7026C304.019 23.8796 304.376 24.4106 304.582 25.0777C304.967 26.3438 304.72 27.5691 304.253 28.7399C302.948 32.0346 300.367 33.8861 297.003 34.6213C295.712 34.88 294.38 34.9344 293.062 34.7574C290.494 34.4443 288.778 32.9059 287.776 30.5642C286.842 28.386 286.622 26.0851 286.526 23.7571C286.485 22.7633 286.526 21.7694 286.526 20.762L286.375 20.7211Z" fill="#EC5250"/>
</g>
<g clip-path="url(#clip1_1_614)">
<path d="M597.261 32.709C597.261 30.875 595.95 29.532 594.144 29.532C592.341 29.532 591.029 30.875 591.029 32.709C591.029 34.5401 592.341 35.8808 594.144 35.8808C595.95 35.8808 597.261 34.5378 597.261 32.709ZM593.325 32.8719V34.9471H592.65V30.3713H594.329C595.313 30.3713 595.764 30.7976 595.764 31.6287C595.764 32.1406 595.416 32.5461 594.966 32.6048V32.6242C595.356 32.6859 595.5 33.0312 595.58 33.6629C595.641 34.0721 595.723 34.7819 595.87 34.9485H595.071C594.885 34.5185 594.903 33.9099 594.76 33.4002C594.642 33.0126 594.433 32.8712 593.985 32.8712H593.329V32.8734L593.325 32.8719ZM594.163 32.2804C594.819 32.2804 595.007 31.9337 595.007 31.6279C595.007 31.2663 594.819 30.9806 594.163 30.9806H593.325V32.2819H594.163V32.2804ZM590.286 32.709C590.286 30.4494 592.094 28.9219 594.141 28.9219C596.195 28.9219 598.001 30.4494 598.001 32.709C598.001 34.9642 596.196 36.4932 594.141 36.4932C592.094 36.4932 590.286 34.9642 590.286 32.709Z" fill="#FF5A00"/>
<path d="M576.923 35.8329L572.478 30.8873L568.072 35.8329H558.8L567.862 25.7333L558.8 15.6309H568.361L572.851 20.5385L577.172 15.6309H586.398L577.382 25.6909L586.524 35.8329H576.923ZM540.997 35.8329V4.0083H558.8V11.1019H548.538V15.6309H558.8V22.4566H548.538V28.7214H558.8V35.8329H540.997Z" fill="#FF5A00"/>
<path d="M533.484 4.0083V17.0326H533.401C531.738 15.1368 529.66 14.4761 527.25 14.4761C522.312 14.4761 518.592 17.8086 517.287 22.2111C515.797 17.3592 511.956 14.3853 506.262 14.3853C501.637 14.3853 497.986 16.4441 496.079 19.7997V15.6301H486.521V11.1027H496.953V4.00979H478V35.8329H486.521V22.4566H495.013C494.752 23.4852 494.621 24.5423 494.624 25.6031C494.624 32.2384 499.735 36.9013 506.261 36.9013C511.746 36.9013 515.364 34.344 517.276 29.6886H509.973C508.986 31.0896 508.236 31.5033 506.262 31.5033C503.973 31.5033 501.997 29.5212 501.997 27.1745H516.867C517.512 32.446 521.651 36.9913 527.333 36.9913C529.784 36.9913 532.028 35.7957 533.4 33.7756H533.482V35.8373H540.995V4.00979H533.484V4.0083ZM502.234 22.5519C502.709 20.5296 504.289 19.2082 506.262 19.2082C508.434 19.2082 509.934 20.4886 510.327 22.5519H502.234ZM528.925 30.9899C526.157 30.9899 524.436 28.4312 524.436 25.7586C524.436 22.9015 525.933 20.1568 528.925 20.1568C532.029 20.1568 533.266 22.903 533.266 25.7586C533.266 28.4654 531.956 30.9899 528.925 30.9899Z" fill="#29007C"/>
</g>
<path fill-rule="evenodd" clip-rule="evenodd" d="M823.849 32.7003C821.988 34.0208 819.71 34.7479 817.312 34.7458C810.965 34.7438 805.925 29.8461 805.927 23.4434C805.929 17.0845 811.004 12.1307 817.263 12.1338C822.669 12.1358 827.852 15.9781 827.85 21.8129C827.85 24.9138 826.546 28.6174 823.147 28.6153C821.984 28.6153 821.132 28.2268 820.167 26.9145L817.811 23.2384L820.739 18.6926L823.147 18.6936L820.123 23.2354L821.437 25.34C821.93 26.061 822.466 26.7167 823.149 26.7187C825.217 26.7187 825.724 23.526 825.724 21.9648C825.726 17.0396 821.633 13.9897 817.199 13.9876C811.974 13.9856 808.117 18.1786 808.115 23.4424C808.113 28.9355 812.273 32.9206 817.404 32.9226C819.403 32.9173 821.352 32.2909 822.98 31.1299L823.849 32.7003Z" fill="#284890"/>
<path fill-rule="evenodd" clip-rule="evenodd" d="M810.75 18.6885L812.751 18.6895L812.749 25.0922C812.749 25.8213 812.776 25.9906 812.92 26.2578C813.139 26.6901 813.603 26.9267 814.248 26.9287C815.102 26.9287 815.647 26.5086 815.731 25.7958C815.76 25.5827 815.76 25.443 815.76 24.925L815.764 18.6915H817.753L817.749 25.2493C817.749 26.1752 817.734 26.3567 817.594 26.7748C817.341 27.5477 816.389 28.6092 814.29 28.6072C812.805 28.6072 811.726 28.1605 811.167 27.3071C810.845 26.8013 810.747 26.4087 810.749 25.4706L810.75 18.6885Z" fill="#CC2131"/>
<path fill-rule="evenodd" clip-rule="evenodd" d="M673 34.5073V12.9068H684.04L683.09 15.4969H675.916V22.1831H683.024V24.7395H675.916V31.9172H684.105V34.5073H673ZM704.414 23.4944C704.414 27.9526 702.154 31.9183 695.832 31.9183H693.243V15.4969H695.864C701.728 15.4969 704.414 19.0363 704.414 23.4944ZM707.461 23.4944C707.461 17.4302 703.727 12.9068 695.635 12.9068H690.328V34.5073H695.635C703.596 34.5073 707.461 29.6229 707.461 23.4944ZM727.934 32.6066C726.591 33.9832 724.527 34.8356 721.514 34.8356C718.697 34.8356 716.764 34.0831 715.487 32.8676C713.816 31.2289 713.391 28.8051 713.391 26.6739V12.9068H716.305V26.6086C716.305 28.1168 716.666 29.7555 717.747 30.871C718.566 31.7215 719.811 32.2792 721.579 32.2792C723.577 32.2792 724.921 31.7551 725.772 30.871C726.689 29.887 727.05 28.4451 727.05 26.8065V12.9078H729.965V27.0012C729.965 29.1314 729.343 31.1647 727.934 32.6066ZM746.573 34.8356C740.022 34.8356 736.058 30.1817 736.058 23.9533C736.058 17.6923 740.514 12.7437 747.131 12.7437C749.62 12.7437 751.553 13.3341 752.666 13.9887L752.634 16.8735C750.996 15.8568 749.424 15.2674 747.097 15.2674C742.216 15.2674 739.202 19.0373 739.202 23.7565C739.202 28.6419 742.118 32.213 746.967 32.213C748.834 32.213 750.602 31.6572 752.109 30.8363L752.961 33.0991C750.832 34.3115 748.67 34.8356 746.573 34.8356ZM769.398 26.3455H763.043L765.435 19.7909C765.827 18.7426 766.09 17.9228 766.287 17.1355H766.318C766.483 17.8565 766.744 18.7416 767.139 19.8235L769.398 26.3455ZM775.688 34.5073L767.27 12.8415H765.401L757.114 34.5073H759.997L762.028 28.8714H770.381L772.576 34.5073H775.688ZM791.764 15.4969H785.737V34.5073H782.789V15.4969H776.597V12.9068H792.649L791.764 15.4969ZM797.365 34.5073V12.9068H800.28V34.5073H797.365ZM849.384 34.5073L838.837 20.5771C837.657 19.0689 837.068 18.2174 836.609 17.365H836.544C836.609 18.0869 836.642 18.971 836.642 20.0529V34.5073H833.726V12.9068H836.708L846.829 26.3129C848.141 28.0495 848.762 28.8703 849.188 29.7544H849.253C849.212 28.8155 849.19 27.8758 849.188 26.936V12.9068H852.103V34.5073H849.384Z" fill="#284890"/>
<path fill-rule="evenodd" clip-rule="evenodd" d="M979.616 33.0132H978.552V38.2462H982.197V37.3031H979.612V33.0161L979.616 33.0132ZM1016.03 38.2462H1017.09V33.0132H1016.03V38.2462ZM985.974 36.0375H988.511V35.0904H985.974V33.9612H988.697V33.0132H984.915V38.2462H988.717V37.3031H985.974V36.0365V36.0375ZM973.483 35.1255L972.134 33.0132H970.868L972.928 36.131V38.2482H973.991V36.129L976.03 33.0113H974.793L973.483 35.1255ZM938.271 38.2433H939.329V33.0132H938.268V38.2462L938.271 38.2433ZM943.324 38.2433H944.384V36.0384H946.624V35.0904H944.384V33.9612H946.94V33.0132H943.324V38.2462V38.2433ZM964.56 33.9563H966.187V38.2433H967.25V33.9563H968.877V33.0132H964.56V33.9612V33.9563ZM951.616 36.0384H954.148V35.0904H951.616V33.9612H954.34V33.0132H950.552V38.2462H954.355V37.3031H951.616V36.0365V36.0384ZM932.301 33.0181H931.242V38.2511H934.886V37.3031H932.301V33.0161V33.0181ZM961.567 35.5708C961.399 35.4528 961.213 35.3617 961.016 35.3009C960.823 35.2353 960.626 35.1797 960.427 35.1343C960.256 35.0945 960.084 35.0562 959.913 35.0193L959.852 35.0066C959.69 34.9753 959.531 34.9289 959.378 34.8683C959.273 34.8314 959.177 34.7714 959.1 34.6929C959.072 34.6628 959.051 34.6276 959.038 34.5895C959.025 34.5513 959.02 34.5109 959.023 34.4708C959.021 34.3693 959.044 34.2688 959.092 34.1785C959.132 34.1019 959.193 34.0383 959.27 33.9953C959.356 33.9435 959.452 33.9075 959.552 33.8891C959.669 33.8641 959.789 33.852 959.909 33.8531C960.16 33.8378 960.41 33.9064 960.617 34.0479C960.709 34.1211 960.783 34.2134 960.835 34.3182C960.887 34.423 960.914 34.5376 960.915 34.6539L960.935 34.8361H961.951L961.942 34.6267C961.941 34.3621 961.881 34.1009 961.768 33.8609C961.668 33.6453 961.517 33.4562 961.327 33.3094C961.14 33.164 960.924 33.0584 960.692 32.9996C960.216 32.8693 959.712 32.8693 959.236 32.9996C959.008 33.054 958.792 33.1509 958.601 33.285C958.408 33.4139 958.25 33.5867 958.139 33.7888C958.018 34.0143 957.958 34.2666 957.965 34.5214C957.953 34.7357 958.001 34.9491 958.103 35.1391C958.204 35.329 958.357 35.4883 958.544 35.6C958.716 35.7084 958.903 35.7924 959.099 35.8494C959.297 35.905 959.486 35.9566 959.685 36.0004L959.787 36.017C959.946 36.053 960.103 36.0881 960.256 36.1203C960.416 36.1499 960.571 36.1994 960.718 36.2674C960.826 36.3101 960.923 36.3768 961 36.4623C961.059 36.5413 961.088 36.6382 961.082 36.736C961.086 36.849 961.059 36.9611 961.004 37.0605C960.951 37.1425 960.878 37.2097 960.791 37.2553C960.686 37.3126 960.572 37.3531 960.455 37.3752C960.163 37.4367 959.86 37.427 959.573 37.3469C959.435 37.3161 959.305 37.2566 959.192 37.1725C959.084 37.0957 958.996 36.9957 958.934 36.8802C958.865 36.7476 958.831 36.6003 958.834 36.4515V36.2567H957.809V36.4584C957.805 36.7522 957.867 37.0434 957.991 37.3109C958.108 37.5446 958.278 37.7491 958.488 37.9091C958.7 38.064 958.941 38.1784 959.196 38.2462C959.467 38.322 959.747 38.3594 960.029 38.3573C960.271 38.3562 960.513 38.3284 960.749 38.2745C960.989 38.2206 961.217 38.1267 961.425 37.9968C961.63 37.8645 961.804 37.6899 961.934 37.4853C962.077 37.2554 962.149 36.9897 962.141 36.7204C962.148 36.4796 962.093 36.2408 961.982 36.0258C961.882 35.8436 961.739 35.6866 961.567 35.5669V35.5708ZM1055.6 33.9651H1057.22V38.2521H1058.28V33.9651H1059.91V33.0132H1055.6V33.9612L1055.6 33.9651ZM1071.03 33.7556C1070.83 33.498 1070.57 33.2867 1070.28 33.1369C1069.96 32.9843 1069.6 32.9051 1069.24 32.9051C1068.88 32.9051 1068.53 32.9843 1068.21 33.1369C1067.92 33.2862 1067.66 33.4976 1067.47 33.7556C1067.26 34.0177 1067.11 34.3153 1067.03 34.6325C1066.93 34.9587 1066.88 35.2965 1066.88 35.636C1066.88 35.9765 1066.93 36.3153 1067.03 36.6425C1067.11 36.9597 1067.26 37.2573 1067.47 37.5194C1067.66 37.7775 1067.92 37.9889 1068.21 38.1381C1068.53 38.2927 1068.89 38.3702 1069.25 38.3641C1069.6 38.3697 1069.96 38.2909 1070.28 38.1342C1070.57 37.9859 1070.83 37.7759 1071.03 37.5194C1071.23 37.2579 1071.37 36.9621 1071.46 36.6474C1071.56 36.316 1071.61 35.9724 1071.61 35.6273C1071.61 35.2876 1071.56 34.9495 1071.46 34.6237C1071.37 34.3084 1071.23 34.0123 1071.03 33.7508V33.7556ZM1070.6 35.6273C1070.6 35.8545 1070.57 36.0808 1070.51 36.3015C1070.46 36.5054 1070.38 36.6997 1070.26 36.8763C1070.16 37.0366 1070.01 37.1701 1069.84 37.2661C1069.66 37.3628 1069.45 37.4134 1069.24 37.4134C1069.03 37.4134 1068.83 37.3628 1068.64 37.2661C1068.47 37.1706 1068.33 37.0369 1068.23 36.8763C1068.11 36.7007 1068.02 36.5061 1067.98 36.3015C1067.92 36.0805 1067.9 35.8543 1067.89 35.6273C1067.9 35.4019 1067.92 35.1772 1067.98 34.9579C1068.02 34.7524 1068.11 34.5566 1068.23 34.3792C1068.33 34.2207 1068.48 34.0875 1068.64 33.9895C1068.83 33.8897 1069.04 33.8406 1069.25 33.8472C1069.45 33.8409 1069.66 33.8901 1069.84 33.9895C1070.01 34.0881 1070.15 34.2211 1070.26 34.3792C1070.38 34.5569 1070.46 34.7525 1070.51 34.9579C1070.57 35.1768 1070.6 35.4016 1070.6 35.6273ZM1062.63 38.2433H1063.69V33.0132H1062.63V38.2462V38.2433ZM1077.61 33.3864V36.5899L1075.4 33.4721L1075.34 33.3854H1074.34V38.2696H1075.37V35.1031L1077.55 38.1839L1077.61 38.2715H1078.64V33.3864H1077.61ZM1052.03 33.0132H1051.03L1048.97 38.2462H1050.08L1050.62 36.7955H1052.4L1052.93 38.2462H1054.09L1052.08 33.1447L1052.03 33.0132ZM1052.05 35.8475H1050.98L1051.52 34.3811L1052.05 35.8475ZM1023.94 36.4623L1021.67 33.0132H1020.66V38.2462H1021.69V34.841L1023.93 38.2462H1024.96V33.0132H1023.94V36.4623H1023.94ZM1031.77 36.4623L1029.57 33.1087L1029.51 33.0171H1028.5V38.2501H1029.53V34.84L1031.77 38.2501H1032.8V33.0132H1031.77V36.4574L1031.77 36.4623ZM1040.18 33.7508C1039.96 33.4899 1039.69 33.2787 1039.38 33.1321C1039.03 32.9793 1038.65 32.9004 1038.27 32.9004C1037.89 32.9004 1037.51 32.9793 1037.16 33.1321C1036.86 33.2776 1036.58 33.4875 1036.37 33.7469C1036.15 34.0071 1035.99 34.3045 1035.88 34.6237C1035.78 34.9487 1035.73 35.2871 1035.73 35.6273C1035.73 35.971 1035.78 36.3128 1035.88 36.6415C1035.99 36.9604 1036.15 37.2576 1036.36 37.5184C1036.58 37.7789 1036.85 37.9886 1037.16 38.1322C1037.51 38.2815 1037.89 38.3586 1038.27 38.3586C1038.65 38.3586 1039.03 38.2815 1039.38 38.1322C1039.69 37.9895 1039.96 37.7815 1040.18 37.5233C1040.39 37.2648 1040.56 36.9668 1040.66 36.6464C1040.77 36.317 1040.82 35.973 1040.82 35.6273C1040.82 35.2857 1040.77 34.9459 1040.66 34.6208C1040.56 34.3015 1040.4 34.0045 1040.18 33.7469L1040.18 33.7508ZM1039.75 35.6273C1039.75 35.8536 1039.72 36.079 1039.66 36.2976C1039.61 36.5021 1039.52 36.6949 1039.4 36.8646C1039.28 37.0314 1039.12 37.1675 1038.94 37.2612C1038.73 37.3591 1038.51 37.41 1038.28 37.41C1038.05 37.41 1037.82 37.3591 1037.61 37.2612C1037.43 37.1661 1037.27 37.0303 1037.15 36.8646C1037.03 36.6931 1036.94 36.5009 1036.89 36.2976C1036.83 36.0775 1036.8 35.8509 1036.8 35.6234C1036.8 35.3986 1036.83 35.1748 1036.88 34.957C1036.94 34.7496 1037.03 34.5537 1037.16 34.3782C1037.28 34.2044 1037.45 34.0628 1037.65 33.9652C1037.84 33.8676 1038.06 33.8167 1038.28 33.8167C1038.5 33.8167 1038.71 33.8676 1038.91 33.9652C1039.1 34.0628 1039.27 34.2044 1039.4 34.3782C1039.52 34.5515 1039.61 34.7461 1039.67 34.9521C1039.73 35.1727 1039.75 35.3996 1039.75 35.6273ZM1045.36 36.7653L1044.15 33.1496L1044.11 33.0113H1042.97L1044.83 38.2443H1045.86L1047.74 33.0113H1046.62L1045.36 36.7653Z" fill="#727171"/>
<path fill-rule="evenodd" clip-rule="evenodd" d="M1047.32 4.79922C1046.45 3.94785 1045.26 3.47167 1044.03 3.47514H1028.5C1027.89 3.47321 1027.28 3.58932 1026.72 3.81685C1026.15 4.04437 1025.64 4.37885 1025.2 4.80117C1024.31 5.93279 1023.83 7.32413 1023.84 8.75393V18.6139C1023.83 20.0617 1024.31 21.4717 1025.2 22.6251C1025.64 23.0474 1026.15 23.3817 1026.72 23.6091C1027.28 23.8365 1027.89 23.9524 1028.5 23.9502H1044.03C1044.64 23.9523 1045.25 23.8363 1045.81 23.6089C1046.38 23.3816 1046.89 23.0473 1047.32 22.6251C1048.22 21.4718 1048.7 20.0618 1048.69 18.6139V8.75199C1048.7 7.32207 1048.21 5.93072 1047.32 4.79922H1047.32ZM1043.76 18.0293C1043.76 18.4639 1043.59 18.268 1043.26 18.5759C1043.11 18.728 1042.92 18.8484 1042.72 18.9302C1042.52 19.012 1042.3 19.0535 1042.08 19.0524H1030.55C1030.1 19.0539 1029.68 18.8825 1029.36 18.5759C1029.04 18.269 1028.87 18.4649 1028.87 18.0293V9.94259C1028.87 9.72864 1028.91 9.51676 1029 9.31935C1029.08 9.12194 1029.2 8.94297 1029.36 8.79291C1029.68 8.48623 1030.1 8.31457 1030.55 8.3155H1042.08C1042.3 8.31466 1042.52 8.3564 1042.73 8.43833C1042.93 8.52026 1043.11 8.64076 1043.27 8.79291C1043.43 8.94219 1043.55 9.12087 1043.64 9.31836C1043.72 9.51584 1043.77 9.72811 1043.77 9.94259V18.0293H1043.76ZM1078.46 7.9891C1078.46 7.39473 1078.34 6.80611 1078.11 6.25793C1077.87 5.70975 1077.53 5.21311 1077.1 4.79727C1076.18 3.94392 1074.97 3.47018 1073.7 3.47514H1052.72V23.9492H1057.65V9.93479C1057.65 9.72048 1057.69 9.50826 1057.77 9.31052C1057.86 9.11278 1057.98 8.9335 1058.14 8.78316C1058.45 8.47784 1058.88 8.30757 1059.32 8.30965H1060.93C1061.38 8.30725 1061.8 8.47757 1062.12 8.78316C1062.28 8.93292 1062.4 9.11196 1062.49 9.30974C1062.57 9.50752 1062.61 9.72005 1062.62 9.93479V23.9492H1067.57V9.93479C1067.57 9.72001 1067.61 9.50742 1067.7 9.30961C1067.78 9.1118 1067.91 8.93278 1068.07 8.78316C1068.38 8.47779 1068.81 8.30752 1069.25 8.30965H1071.86C1072.3 8.30725 1072.73 8.47757 1073.05 8.78316C1073.2 8.93278 1073.33 9.1118 1073.41 9.30961C1073.5 9.50742 1073.54 9.72001 1073.54 9.93479V23.9492H1078.47V7.9891H1078.46ZM999.995 8.74906C999.988 7.31975 1000.47 5.92904 1001.36 4.79825C1002.29 3.94399 1003.51 3.4704 1004.78 3.47514H1020.82V8.31257H1006.63C1006.41 8.31098 1006.19 8.35217 1005.99 8.43376C1005.78 8.51535 1005.59 8.63574 1005.44 8.78803C1005.28 8.93808 1005.16 9.11703 1005.07 9.31443C1004.99 9.51183 1004.95 9.72372 1004.95 9.93772V18.0323C1004.95 18.4658 1005.12 18.27 1005.44 18.5779C1005.59 18.7304 1005.78 18.851 1005.98 18.9328C1006.19 19.0145 1006.41 19.0558 1006.63 19.0543H1020.82V23.9512H1004.78C1003.51 23.9566 1002.29 23.4824 1001.36 22.6271C1000.47 21.4737 999.989 20.0637 999.997 18.6159V8.74809L999.995 8.74906ZM974.184 23.9483H959.797C959.203 23.9494 958.615 23.8326 958.068 23.6049C957.522 23.3771 957.028 23.0432 956.616 22.6232C955.721 21.4119 955.242 19.9521 955.251 18.4561V3.47514H960.244V17.8744C960.244 18.3109 960.418 18.1131 960.735 18.422C961.051 18.7269 961.477 18.8968 961.92 18.8945H974.188V23.9483H974.184ZM931.376 3.47514H952.252V8.26483H938.379C937.936 8.26285 937.51 8.43312 937.194 8.73834C937.039 8.86591 936.914 9.02511 936.829 9.20483C936.743 9.38455 936.698 9.58047 936.697 9.7789V10.5252C936.697 10.74 936.741 10.9526 936.827 11.1504C936.912 11.3482 937.037 11.5272 937.194 11.6769C937.51 11.9822 937.936 12.1527 938.379 12.1513H951.574V16.0729H938.379C938.159 16.0716 937.942 16.1131 937.738 16.1949C937.535 16.2766 937.35 16.3971 937.194 16.5494C936.876 16.8563 936.697 16.2902 936.697 16.7238V17.9855C936.697 18.421 936.871 18.2242 937.194 18.5331C937.51 18.8389 937.936 19.0099 938.379 19.0085H952.252V23.9502H936.035C934.801 23.9539 933.616 23.4773 932.741 22.6251C932.307 22.2093 931.963 21.7125 931.729 21.1641C931.494 20.6157 931.374 20.0269 931.376 19.4323V3.47514ZM976.166 3.47514H997.018V8.30965H983.419C982.976 8.30787 982.549 8.4789 982.234 8.78511C982.077 8.93447 981.953 9.11316 981.867 9.31063C981.782 9.50809 981.738 9.72033 981.737 9.93479V10.685C981.737 10.8998 981.782 11.1124 981.867 11.3102C981.952 11.508 982.077 11.687 982.234 11.8366C982.55 12.1421 982.976 12.3127 983.419 12.3111H995.967V16.1226H983.419C983.2 16.1214 982.982 16.1629 982.778 16.2446C982.575 16.3264 982.39 16.4469 982.234 16.5991C981.916 16.9069 981.737 16.3409 981.737 16.7735V18.0401C981.737 18.4746 981.912 18.2778 982.234 18.5866C982.55 18.8927 982.976 19.0637 983.419 19.0621H996.993V23.959H981.075C979.841 23.9627 978.656 23.4861 977.78 22.6339C976.81 21.4448 976.246 19.9872 976.166 18.4668V3.47514ZM1006.94 38.4606V34.5244C1006.94 34.19 1006.81 33.8688 1006.57 33.6309C1006.45 33.5133 1006.31 33.42 1006.15 33.3564C1006 33.2928 1005.83 33.2603 1005.67 33.2607H1005.08C1004.93 33.2609 1004.77 33.2941 1004.63 33.358C1004.49 33.4219 1004.37 33.5151 1004.27 33.6309C1004.03 33.8687 1003.89 34.1899 1003.89 34.5244V38.4606H1000.96V34.5244C1000.96 34.1899 1000.83 33.8687 1000.59 33.6309C1000.3 33.3904 999.935 33.259 999.557 33.2607H999.144C998.976 33.2602 998.81 33.2927 998.656 33.3563C998.501 33.4199 998.361 33.5133 998.244 33.6309C998.124 33.7485 998.03 33.8879 997.966 34.0412C997.902 34.1945 997.869 34.3587 997.87 34.5244V38.4606H994.98V30.7791H1009.84V38.4606H1006.94Z" fill="#014099"/>
<path d="M1314.75 10.465H1315.46C1315.8 10.465 1316.03 10.4139 1316.15 10.3144C1316.21 10.2668 1316.26 10.206 1316.29 10.1369C1316.32 10.0677 1316.34 9.99216 1316.34 9.91615C1316.34 9.81387 1316.31 9.71377 1316.25 9.63027C1316.18 9.54416 1316.1 9.47891 1316 9.4433C1315.89 9.39863 1315.7 9.38076 1315.41 9.38076H1314.75V10.465ZM1314.16 12.4981V8.88939H1315.41C1315.83 8.88939 1316.14 8.92321 1316.33 8.98894C1316.52 9.05531 1316.67 9.17273 1316.79 9.33992C1316.9 9.50392 1316.95 9.68068 1316.95 9.86574C1316.95 10.1306 1316.86 10.359 1316.67 10.5549C1316.48 10.7496 1316.23 10.86 1315.92 10.8836C1316.05 10.9365 1316.15 11.0003 1316.23 11.0744C1316.37 11.2154 1316.55 11.4547 1316.76 11.7904L1317.2 12.4987H1316.48L1316.16 11.9288C1315.91 11.4834 1315.71 11.2033 1315.56 11.0903C1315.45 11.0055 1315.3 10.9627 1315.09 10.9627H1314.75V12.4981H1314.16ZM1315.64 7.83711C1315.16 7.83711 1314.7 7.95835 1314.25 8.19957C1313.81 8.43828 1313.45 8.79914 1313.2 9.23909C1312.96 9.66644 1312.82 10.1509 1312.82 10.6443C1312.82 11.1286 1312.95 11.5925 1313.19 12.038C1313.44 12.4808 1313.79 12.8267 1314.24 13.0743C1314.66 13.3182 1315.15 13.4469 1315.64 13.4476C1316.12 13.4476 1316.59 13.3238 1317.03 13.0743C1317.47 12.8349 1317.83 12.4753 1318.07 12.038C1318.32 11.6134 1318.44 11.1332 1318.44 10.6443C1318.44 10.1567 1318.32 9.68706 1318.07 9.23909C1317.83 8.79806 1317.46 8.4367 1317.02 8.19893C1316.57 7.95771 1316.11 7.83711 1315.64 7.83711ZM1315.64 7.2832C1316.2 7.2832 1316.75 7.42806 1317.29 7.71714C1317.82 7.99942 1318.26 8.43119 1318.55 8.95895C1318.85 9.49881 1319 10.0597 1319 10.6443C1319 11.2224 1318.85 11.7795 1318.56 12.3136C1318.27 12.8391 1317.84 13.2713 1317.31 13.5593C1316.8 13.8481 1316.22 14.0002 1315.64 14.0009C1315.05 14.0004 1314.47 13.8482 1313.96 13.5593C1313.44 13.2704 1313 12.8384 1312.71 12.3136C1312.42 11.8049 1312.27 11.2298 1312.27 10.6443C1312.27 10.0597 1312.42 9.49881 1312.72 8.95895C1313.01 8.43224 1313.45 8.00102 1313.98 7.71777C1314.52 7.42806 1315.07 7.2832 1315.64 7.2832Z" fill="#808080"/>
<path fill-rule="evenodd" clip-rule="evenodd" d="M1176.33 3.1333C1174.65 3.17797 1172.95 3.52958 1171.33 4.10965C1165.09 6.71197 1160.74 12.3901 1158.77 19.2029C1158.44 20.4817 1158.17 21.7618 1158.03 23.0827C1158.03 23.1255 1157.93 24.426 1158.11 24.075C1158.3 23.7662 1158.38 23.3112 1158.48 22.9596C1159.44 19.7599 1160.6 16.8481 1162.37 14.0818C1166.64 7.82488 1173.49 3.79951 1180.73 6.0298C1182.07 6.48288 1183.27 7.14463 1184.47 7.92889C1184.7 8.09417 1186.38 9.41575 1186 8.21797C1185.69 7.2697 1184.91 6.46246 1184.22 5.82241C1181.92 3.83525 1179.14 3.05864 1176.33 3.1333ZM1229.18 9.39342C1228.21 9.39342 1227.47 9.72525 1226.95 10.4068C1226.41 11.0666 1226.16 12.0583 1226.16 13.3594V22.7745C1224.96 21.4536 1223.72 20.5027 1222.46 19.8614C1221.59 19.4431 1220.66 19.1646 1219.71 19.0363C1219.08 18.9517 1218.44 18.9106 1217.8 18.9131C1214.64 18.9131 1212.05 20.0267 1210.11 22.2557C1208.16 24.486 1207.19 27.5841 1207.19 31.5687C1207.19 33.448 1207.44 35.2016 1207.91 36.8122C1208.41 38.4229 1209.13 39.8261 1210.09 41.0239C1211 42.1819 1212.16 43.1264 1213.48 43.7915C1214.78 44.4297 1216.19 44.7615 1217.72 44.7615C1218.4 44.7615 1219.07 44.6977 1219.71 44.5745C1220.11 44.5105 1220.51 44.4143 1220.91 44.2867C1221.88 43.957 1222.79 43.4838 1223.62 42.8828C1224.47 42.2626 1225.29 41.4579 1226.16 40.4879V41.1056C1226.16 42.2843 1226.45 43.1719 1227.01 43.8113C1227.57 44.4303 1228.32 44.7615 1229.18 44.7615C1230.03 44.7615 1230.78 44.452 1231.33 43.8528C1231.89 43.2332 1232.16 42.3257 1232.16 41.1056V13.0276C1232.16 11.8515 1231.91 10.9428 1231.4 10.3232C1230.86 9.70419 1230.11 9.39342 1229.18 9.39342ZM1307.27 9.39342C1306.3 9.39342 1305.55 9.72525 1305.03 10.4068C1304.52 11.0666 1304.25 12.0583 1304.25 13.3594V22.7745C1303.05 21.4536 1301.81 20.5027 1300.54 19.8614C1299.76 19.469 1298.83 19.1818 1297.79 19.0363C1297.16 18.9517 1296.52 18.9105 1295.89 18.9131C1292.72 18.9131 1290.16 20.0267 1288.19 22.2557C1286.25 24.486 1285.27 27.5841 1285.27 31.5687C1285.27 33.448 1285.52 35.2016 1286.02 36.8122C1286.51 38.4229 1287.22 39.8261 1288.17 41.0239C1289.09 42.1824 1290.24 43.127 1291.56 43.7915C1292.87 44.4297 1294.28 44.7615 1295.81 44.7615C1296.51 44.7615 1297.17 44.6977 1297.79 44.5745C1298.21 44.5133 1298.6 44.4105 1298.99 44.2867C1299.96 43.9571 1300.87 43.4839 1301.7 42.8828C1302.55 42.2626 1303.4 41.4579 1304.25 40.4879V41.1056C1304.25 42.2843 1304.54 43.1719 1305.1 43.8113C1305.67 44.4303 1306.4 44.7615 1307.27 44.7615C1308.16 44.7615 1308.88 44.452 1309.44 43.8528C1310 43.2332 1310.29 42.3257 1310.29 41.1056V13.0276C1310.29 11.8515 1310.02 10.9428 1309.5 10.3232C1308.96 9.70419 1308.24 9.39342 1307.27 9.39342H1307.27ZM1174.7 11.1132C1173.83 11.0904 1172.96 11.2877 1172.18 11.6869C1169.6 12.9868 1168.56 16.1455 1169.88 18.7262C1171.19 21.3074 1174.35 22.3406 1176.94 21.0196C1179.53 19.7185 1180.56 16.5597 1179.24 13.9803C1178.81 13.1377 1178.16 12.4259 1177.37 11.921C1176.57 11.4161 1175.65 11.1369 1174.7 11.1132ZM1246.79 18.8295C1244.95 18.8506 1243.27 19.1601 1241.74 19.737C1240.17 20.3579 1238.85 21.2462 1237.77 22.382C1236.69 23.5371 1235.87 24.9218 1235.31 26.5312C1234.75 28.1425 1234.46 29.8974 1234.46 31.7754C1234.46 35.781 1235.62 38.9181 1237.89 41.2505C1240.05 43.461 1243 44.616 1246.79 44.7392C1247.02 44.7609 1247.22 44.7615 1247.45 44.7615C1249.25 44.7615 1250.83 44.5337 1252.21 44.0595C1253.6 43.5835 1254.74 43.0066 1255.65 42.3034C1256.58 41.5823 1257.24 40.8382 1257.69 40.0737C1258.15 39.3105 1258.38 38.6296 1258.38 38.0725C1258.38 37.4325 1258.17 36.9162 1257.78 36.564C1257.36 36.2143 1256.83 36.0273 1256.18 36.0273C1255.56 36.0273 1255.11 36.1728 1254.78 36.4408C1254.14 37.0454 1253.49 37.6375 1252.83 38.2168C1252.31 38.6538 1251.77 39.0604 1251.2 39.4343C1250.6 39.8057 1250 40.0961 1249.36 40.2607C1248.74 40.4458 1248.03 40.5287 1247.27 40.5287C1247.1 40.5287 1246.94 40.5287 1246.79 40.5077C1245.84 40.4458 1244.95 40.1778 1244.14 39.6813C1243.21 39.1248 1242.45 38.2997 1241.89 37.2257C1241.31 36.1109 1241.02 34.8308 1241 33.3861H1253.49C1255.15 33.3861 1256.45 33.1385 1257.38 32.6841C1258.29 32.1889 1258.75 31.1558 1258.75 29.5662C1258.75 27.8317 1258.32 26.1394 1257.43 24.4675C1256.54 22.8147 1255.19 21.4536 1253.41 20.3987C1251.63 19.3471 1249.48 18.8295 1247 18.8295H1246.79ZM1272.34 18.8295C1270.5 18.8506 1268.81 19.1601 1267.3 19.737C1265.72 20.3579 1264.4 21.2462 1263.3 22.382C1262.25 23.5371 1261.42 24.9218 1260.86 26.5312C1260.3 28.1425 1260.01 29.8974 1260.01 31.7754C1260.01 35.781 1261.15 38.9181 1263.43 41.2505C1265.58 43.461 1268.56 44.616 1272.34 44.7392C1272.55 44.7609 1272.78 44.7615 1273 44.7615C1274.78 44.7615 1276.38 44.5337 1277.76 44.0595C1279.15 43.5835 1280.29 43.0066 1281.2 42.3034C1282.11 41.5823 1282.79 40.8382 1283.25 40.0737C1283.7 39.3105 1283.93 38.6296 1283.93 38.0725C1283.93 37.4325 1283.72 36.9162 1283.31 36.564C1282.92 36.2143 1282.38 36.0273 1281.72 36.0273C1281.11 36.0273 1280.66 36.1728 1280.33 36.4408C1279.52 37.1843 1278.88 37.7828 1278.39 38.2168C1277.86 38.654 1277.3 39.0605 1276.73 39.4343C1276.15 39.8057 1275.53 40.0961 1274.91 40.2607C1274.27 40.4458 1273.59 40.5287 1272.82 40.5287C1272.65 40.5287 1272.49 40.5287 1272.34 40.5077C1271.39 40.4458 1270.5 40.1778 1269.69 39.6813C1268.74 39.1248 1268 38.2997 1267.42 37.2257C1266.86 36.1109 1266.57 34.8308 1266.55 33.3861H1279.02C1280.7 33.3861 1282 33.1385 1282.92 32.6841C1283.85 32.1889 1284.3 31.1558 1284.3 29.5662C1284.3 27.8317 1283.85 26.1394 1282.96 24.4675C1282.07 22.8147 1280.74 21.4536 1278.94 20.3987C1277.16 19.3471 1275.03 18.8295 1272.53 18.8295H1272.34ZM1185.44 18.8723C1184.51 18.8723 1183.79 19.1812 1183.27 19.7797C1182.73 20.3579 1182.46 21.2666 1182.46 22.4842V40.8791C1182.46 42.1171 1182.75 43.0883 1183.35 43.7494C1183.95 44.4297 1184.7 44.7615 1185.63 44.7615C1186.58 44.7615 1187.35 44.4297 1187.95 43.7915C1188.55 43.1304 1188.86 42.179 1188.86 40.8791V32.9311C1188.86 30.3083 1189 28.5541 1189.31 27.6039C1189.75 26.4074 1190.45 25.4789 1191.38 24.7974C1192.31 24.1363 1193.35 23.7853 1194.49 23.7853C1196.22 23.7853 1197.4 24.343 1197.98 25.4566C1198.56 26.5727 1198.85 28.1814 1198.85 30.2886V40.8791C1198.85 42.1171 1199.14 43.0883 1199.74 43.7494C1200.34 44.4297 1201.11 44.7615 1202.06 44.7615C1202.99 44.7615 1203.75 44.4297 1204.33 43.7692C1204.91 43.1304 1205.22 42.1585 1205.22 40.8791V29.0499C1205.22 27.6467 1205.16 26.4891 1205.04 25.6014C1204.91 24.6927 1204.65 23.8478 1204.21 23.0623C1203.55 21.7209 1202.58 20.6884 1201.25 19.9654C1199.93 19.2424 1198.42 18.8723 1196.74 18.8723C1195 18.8723 1193.47 19.222 1192.13 19.9042C1190.8 20.6055 1189.58 21.6795 1188.44 23.165V22.382C1188.44 21.6386 1188.32 20.9986 1188.05 20.4613C1187.78 19.9252 1187.41 19.5321 1186.96 19.2635C1186.5 18.9948 1186 18.8723 1185.44 18.8723ZM1246.77 23.2691H1246.79C1248.44 23.2691 1249.79 23.8057 1250.8 24.8797C1251.84 25.9524 1252.42 27.5841 1252.58 29.7729H1241C1241.22 27.6263 1241.85 25.9945 1242.86 24.9008C1243.87 23.8064 1245.18 23.2691 1246.77 23.2691H1246.77ZM1272.32 23.2691H1272.34C1274 23.2691 1275.34 23.8057 1276.36 24.8797C1277.37 25.9524 1277.97 27.5841 1278.12 29.7729H1266.55C1266.76 27.6263 1267.38 25.9945 1268.41 24.9008C1269.43 23.8064 1270.73 23.2691 1272.32 23.2691ZM1219.63 23.6405H1219.71C1220.8 23.6405 1221.82 23.971 1222.73 24.6117C1223.68 25.2511 1224.43 26.1802 1224.98 27.3984C1225.52 28.6166 1225.81 30.0824 1225.81 31.7761C1225.81 33.5922 1225.52 35.0988 1224.98 36.296C1224.43 37.4938 1223.68 38.3808 1222.75 38.9583C1221.84 39.5364 1220.8 39.8274 1219.71 39.8274H1219.69C1218.57 39.8274 1217.55 39.5173 1216.62 38.9187C1215.67 38.2997 1214.95 37.391 1214.41 36.1939C1213.87 34.9757 1213.6 33.5099 1213.6 31.7754C1213.6 30.1443 1213.85 28.699 1214.35 27.4808C1214.87 26.2428 1215.57 25.292 1216.5 24.6315C1217.41 23.9493 1218.47 23.6405 1219.63 23.6405ZM1297.73 23.6405H1297.79C1298.89 23.6405 1299.9 23.971 1300.83 24.6117C1301.76 25.2511 1302.51 26.1802 1303.07 27.3984C1303.63 28.6166 1303.9 30.0824 1303.9 31.7761C1303.9 33.5922 1303.63 35.0988 1303.07 36.296C1302.51 37.4938 1301.76 38.3808 1300.85 38.9583C1299.94 39.534 1298.87 39.8356 1297.79 39.8274H1297.77C1296.66 39.8274 1295.64 39.5173 1294.71 38.9187C1293.78 38.2997 1293.03 37.391 1292.5 36.1939C1291.96 34.9757 1291.69 33.5099 1291.69 31.7754C1291.69 30.1443 1291.94 28.6996 1292.45 27.4808C1292.95 26.2428 1293.67 25.292 1294.59 24.6315C1295.52 23.9493 1296.55 23.6405 1297.73 23.6405ZM1178.24 23.8478C1176.59 24.837 1174.64 25.3953 1172.57 25.3953C1172.14 25.3953 1171.73 25.3755 1171.29 25.3334V40.5287C1171.29 41.9326 1171.62 42.9856 1172.26 43.6882C1172.93 44.4105 1173.73 44.7615 1174.75 44.7615C1175.78 44.7615 1176.63 44.4105 1177.27 43.7086C1177.91 43.0066 1178.24 41.9537 1178.24 40.5287V23.8485V23.8478Z" fill="#2164F3"/>
<defs>
<clipPath id="clip0_1_614">
<rect width="150" height="42" fill="white" transform="translate(253)"/>
</clipPath>
<clipPath id="clip1_1_614">
<rect width="120" height="33" fill="white" transform="translate(478 4)"/>
</clipPath>
</defs>
</svg>
