<svg width="205" height="40" viewBox="0 0 205 40" fill="none" xmlns="http://www.w3.org/2000/svg">
<circle cx="20" cy="20" r="20" fill="#242424"/>
<path d="M21.3147 35.3123V23.9863H24.5687L25 20.0001H21.3147L21.3201 18.0048C21.3201 16.9651 21.4208 16.4083 22.9427 16.4083H24.9772V12.4214H21.7224C17.8129 12.4214 16.4371 14.355 16.4371 17.6073V20.0004H14V23.987H16.4371V35.1517C17.3865 35.3373 18.368 35.4353 19.373 35.4353C20.0223 35.4354 20.6708 35.3942 21.3147 35.3123Z" fill="white"/>
<circle cx="75" cy="20" r="20" fill="#242424"/>
<path d="M86 16.6734C85.1909 17.0545 84.3218 17.3121 83.4082 17.4285C84.3402 16.8351 85.0553 15.8935 85.3925 14.7726C84.5205 15.3228 83.5545 15.7225 82.5265 15.9367C81.7029 15.0055 80.5305 14.4224 79.2322 14.4224C76.7401 14.4224 74.719 16.5714 74.719 19.2231C74.7191 19.5907 74.7581 19.957 74.8353 20.3152C71.0827 20.1143 67.7584 18.2032 65.5318 15.3001C65.1443 16.0109 64.9214 16.8351 64.9214 17.7129C64.9214 19.3776 65.7189 20.8478 66.929 21.708C66.2123 21.6838 65.5114 21.4778 64.8846 21.1074V21.1692C64.8846 23.4944 66.4397 25.4343 68.5054 25.8752C68.1178 25.9864 67.718 26.0426 67.3166 26.0421C67.0315 26.0424 66.747 26.0141 66.4669 25.9577C67.0414 27.8635 68.708 29.2523 70.6835 29.2894C69.1381 30.5771 67.1916 31.3446 65.0774 31.3446C64.7131 31.3446 64.3536 31.322 64 31.2776C65.9979 32.6407 68.3698 33.4339 70.918 33.4339C79.2215 33.4339 83.7609 26.1214 83.7609 19.7795C83.7609 19.5734 83.756 19.3653 83.7473 19.1593C84.629 18.4814 85.3944 17.6376 85.998 16.6765L86 16.6734Z" fill="white"/>
<circle cx="130" cy="20" r="20" fill="#242424"/>
<path d="M125.298 33.4339H121.377V20.7595H125.298V33.4339ZM123.319 19.0997C122.038 19.0997 121 18.0526 121 16.7611C121 15.4694 122.038 14.4224 123.319 14.4224C124.599 14.4224 125.637 15.4694 125.637 16.7611C125.637 18.0526 124.599 19.0997 123.319 19.0997ZM139.99 33.4339H136.089V26.7809C136.089 24.9562 135.396 23.9376 133.954 23.9376C132.385 23.9376 131.565 24.9984 131.565 26.7809V33.4339H127.804V20.7595H131.565V22.4665C131.565 22.4665 132.696 20.3729 135.382 20.3729C138.068 20.3729 139.99 22.0139 139.99 25.4087L139.99 33.4339Z" fill="white"/>
<circle cx="185" cy="20" r="20" fill="#242424"/>
<path d="M192.997 22.1141C192.835 22.1292 192.672 22.1371 192.509 22.1378C191.628 22.1379 190.761 21.9282 189.987 21.5275C189.212 21.1268 188.554 20.5478 188.071 19.8428V27.6578C188.071 28.8002 187.717 29.917 187.054 30.8668C186.391 31.8167 185.448 32.557 184.345 32.9942C183.243 33.4314 182.029 33.5458 180.858 33.3229C179.687 33.1 178.612 32.5499 177.768 31.7421C176.924 30.9343 176.349 29.9051 176.116 28.7847C175.883 27.6642 176.003 26.5028 176.459 25.4474C176.916 24.392 177.69 23.4899 178.682 22.8552C179.675 22.2205 180.842 21.8817 182.036 21.8817C182.162 21.8817 182.285 21.8926 182.409 21.9V24.7464C182.285 24.7322 182.163 24.7105 182.036 24.7105C181.219 24.7105 180.435 25.0211 179.857 25.574C179.28 26.1268 178.955 26.8766 178.955 27.6585C178.955 28.4403 179.28 29.1902 179.857 29.743C180.435 30.2959 181.219 30.6065 182.036 30.6065C183.737 30.6065 185.24 29.3235 185.24 27.6951L185.27 14.4224H188.115C188.245 15.6055 188.806 16.7073 189.699 17.5351C190.592 18.3629 191.76 18.864 193 18.9507V22.1141" fill="white"/>
</svg>
