<svg width="56" height="46" viewBox="0 0 56 46" fill="none" xmlns="http://www.w3.org/2000/svg">
<path d="M51.1322 39.0782C56.4 33.3574 55.8696 26.0109 55.8529 25.9271V3.58023C55.8529 2.83938 55.5588 2.12888 55.0352 1.60502C54.5117 1.08117 53.8016 0.786865 53.0612 0.786865H36.3112C33.232 0.786865 30.7279 3.29251 30.7279 6.37359V25.9271C30.7279 26.668 31.022 27.3785 31.5455 27.9023C32.0691 28.4262 32.7791 28.7205 33.5195 28.7205H42.1123C42.0533 30.1015 41.6409 31.4442 40.9147 32.62C39.4965 34.8575 36.8249 36.3854 32.9696 37.1564L30.7279 37.6034V45.4806H33.5195C41.2887 45.4806 47.2155 43.327 51.1322 39.0782ZM20.4043 39.0782C25.675 33.3574 25.1417 26.0109 25.125 25.9271V3.58023C25.125 2.83938 24.8309 2.12888 24.3073 1.60502C23.7838 1.08117 23.0737 0.786865 22.3333 0.786865H5.58333C2.50412 0.786865 0 3.29251 0 6.37359V25.9271C0 26.668 0.294121 27.3785 0.81766 27.9023C1.3412 28.4262 2.05127 28.7205 2.79167 28.7205H11.3844C11.3254 30.1015 10.9131 31.4442 10.1868 32.62C8.76863 34.8575 6.097 36.3854 2.24171 37.1564L0 37.6034V45.4806H2.79167C10.5609 45.4806 16.4876 43.327 20.4043 39.0782Z" fill="#D2D2D2"/>
</svg>
